<?xml version="1.0" standalone="no"?>
<!DOCTYPE svg PUBLIC "-//W3C//DTD SVG 20010904//EN"
 "http://www.w3.org/TR/2001/REC-SVG-20010904/DTD/svg10.dtd">
<svg version="1.0" xmlns="http://www.w3.org/2000/svg"
 width="2816.000000pt" height="2816.000000pt" viewBox="0 0 2816.000000 2816.000000"
 preserveAspectRatio="xMidYMid meet">
<metadata>
Created by potrace 1.14, written by Peter Selinger 2001-2017
</metadata>
<g transform="translate(0.000000,2816.000000) scale(0.100000,-0.100000)"
fill="#000000" stroke="none">
<path d="M21301 18120 c-8 -5 -6 -5336 2 -5375 2 -11 7 -45 12 -75 11 -77 10
-75 45 -183 38 -117 111 -262 165 -323 6 -7 33 -39 60 -72 28 -34 54 -61 59
-61 4 -1 23 -13 40 -28 55 -47 90 -73 98 -73 5 0 27 -12 49 -26 45 -28 196
-89 244 -98 17 -3 50 -10 75 -16 25 -6 61 -13 80 -15 19 -3 58 -9 87 -14 87
-13 366 -5 453 14 14 3 35 7 48 10 13 2 32 7 42 10 10 3 29 8 41 10 35 7 119
35 176 58 43 18 53 27 53 47 4 130 1 852 -3 856 -3 3 -29 -8 -58 -25 -53 -29
-135 -58 -194 -67 -56 -9 -175 -10 -175 -2 0 5 -4 7 -10 3 -15 -9 -132 49
-171 86 -46 44 -67 78 -87 142 -23 78 -23 74 -27 482 -2 209 -5 382 -6 385 -1
3 0 10 1 15 3 12 3 206 0 220 -1 6 -1 15 0 20 3 12 3 206 0 220 -1 6 -1 15 0
20 3 12 3 206 0 220 -1 6 -1 15 0 20 3 12 3 1806 0 1820 -1 6 -1 15 0 20 3 12
3 206 0 220 -1 6 -1 15 0 20 3 12 3 206 0 220 -1 6 -1 15 0 20 3 12 3 206 0
220 -1 6 -1 15 0 20 1 6 3 246 3 535 l1 525 -548 0 c-301 1 -550 -2 -555 -5z"/>
<path d="M12265 14878 l0 -3013 570 0 570 0 2 1255 c2 690 3 1291 3 1335 l0
80 1391 0 c920 0 1393 3 1397 10 12 18 9 934 -3 938 -5 2 -633 3 -1393 3 -761
-1 -1386 2 -1388 6 -7 11 -6 1377 1 1388 3 5 596 9 1410 9 772 0 1408 2 1412
4 4 3 8 227 8 499 l-1 493 -1990 3 -1990 2 1 -3012z"/>
<path d="M4740 17813 c-8 -4 -66 -30 -128 -60 -62 -29 -115 -53 -117 -53 -2 0
-65 -29 -140 -65 -75 -36 -139 -65 -141 -65 -2 0 -60 -27 -130 -60 -69 -33
-127 -60 -129 -60 -2 0 -55 -25 -119 -55 -63 -30 -117 -55 -119 -55 -2 0 -60
-26 -128 -59 -68 -32 -144 -68 -169 -79 -25 -11 -85 -39 -133 -61 -49 -23 -92
-41 -98 -41 -5 0 -9 -5 -9 -12 0 -6 -3 -9 -6 -6 -3 3 -38 -10 -77 -29 -40 -20
-78 -36 -84 -36 -7 0 -13 -4 -13 -9 0 -4 -4 -8 -9 -8 -5 0 -44 -17 -87 -37
-44 -20 -81 -37 -84 -38 -3 -1 -36 -16 -75 -34 -38 -19 -97 -46 -130 -61 -80
-37 -209 -96 -270 -125 -27 -13 -81 -38 -120 -55 -38 -18 -103 -48 -143 -66
-39 -19 -77 -34 -82 -34 -6 0 -10 -4 -10 -10 0 -5 -6 -10 -14 -10 -12 0 -144
-58 -209 -91 -23 -12 -291 -137 -467 -217 -52 -24 -197 -91 -290 -135 -36 -17
-67 -31 -70 -32 -3 0 -32 -14 -65 -29 -33 -16 -87 -41 -120 -56 -74 -34 -200
-92 -280 -130 -33 -15 -82 -38 -110 -50 -27 -13 -93 -43 -145 -67 -52 -25
-123 -58 -157 -74 -35 -16 -63 -34 -63 -39 0 -9 84 -54 120 -65 3 -1 41 -19
85 -39 44 -20 98 -46 120 -56 22 -10 89 -41 148 -69 60 -28 110 -51 112 -51 2
0 69 -31 150 -70 81 -38 149 -70 151 -70 2 0 41 -18 87 -39 45 -22 118 -56
162 -76 44 -20 102 -48 129 -61 28 -13 56 -24 63 -24 7 0 13 -4 13 -10 0 -5 6
-10 14 -10 7 0 34 -11 59 -24 25 -14 48 -22 51 -19 3 4 6 1 6 -5 0 -7 3 -11 8
-10 4 1 47 -17 96 -40 49 -23 90 -42 92 -42 2 0 64 -29 139 -65 75 -36 138
-65 140 -65 1 0 49 -22 106 -49 57 -26 131 -61 164 -76 33 -16 62 -29 65 -30
3 0 49 -22 104 -48 54 -26 100 -47 102 -47 2 0 60 -27 130 -60 69 -33 128 -60
130 -60 3 0 194 -89 263 -123 25 -12 47 -22 50 -23 3 0 42 -17 86 -38 132 -63
170 -79 178 -78 4 1 7 -3 7 -8 0 -5 3 -9 8 -8 4 1 39 -13 77 -31 39 -18 95
-45 125 -58 30 -14 80 -37 110 -51 30 -15 58 -25 63 -24 4 1 7 -3 7 -8 0 -6 4
-10 10 -10 5 0 40 -14 77 -31 38 -17 93 -43 123 -57 30 -13 98 -45 150 -70 52
-25 100 -46 105 -48 6 -1 69 -30 140 -64 72 -34 146 -69 165 -77 19 -9 85 -40
147 -69 110 -52 131 -56 169 -35 11 5 38 18 62 27 23 10 42 22 42 27 0 4 4 6
8 3 5 -3 31 6 58 20 27 14 87 42 134 64 98 44 213 97 320 147 41 19 93 43 115
54 22 10 76 35 120 55 44 20 82 38 85 39 3 0 34 15 70 32 85 41 199 93 280
129 36 15 68 32 71 37 3 5 9 8 13 7 4 -1 30 10 59 23 29 14 75 35 102 47 28
12 91 42 140 65 50 23 117 55 150 70 33 15 87 40 120 55 33 15 87 40 120 56
33 15 62 28 65 29 3 0 23 10 45 22 22 11 43 22 47 22 4 1 61 27 125 57 65 31
123 56 128 57 6 1 13 6 16 10 3 5 12 10 20 11 8 2 54 22 104 45 118 56 179 84
240 111 28 13 95 44 150 70 55 26 125 59 155 73 116 52 197 90 265 122 39 18
93 42 120 55 28 12 86 39 130 60 161 76 180 84 188 82 4 -1 7 3 7 8 0 6 6 10
14 10 8 0 31 9 53 20 34 18 202 96 293 137 36 16 127 58 235 108 258 119 271
127 245 138 -14 5 -54 24 -90 41 -36 17 -67 31 -70 31 -3 1 -24 11 -46 23 -23
11 -44 18 -48 15 -3 -4 -6 -1 -6 5 0 7 -4 12 -9 12 -5 0 -51 20 -103 44 -51
24 -145 67 -208 96 -63 29 -119 57 -125 61 -5 5 -17 9 -27 9 -10 0 -18 4 -18
8 0 5 -6 9 -12 9 -7 0 -53 20 -103 44 -49 24 -93 43 -97 42 -3 -2 -12 4 -18
12 -7 8 -18 15 -25 15 -7 0 -30 9 -52 19 -21 11 -78 38 -128 61 -49 23 -127
59 -173 81 -45 21 -84 39 -86 39 -5 0 -256 117 -278 130 -10 6 -25 10 -33 10
-8 0 -15 3 -15 8 0 4 -21 16 -48 26 -26 11 -88 39 -138 63 -51 24 -97 43 -103
43 -6 0 -11 5 -11 10 0 6 -7 10 -15 10 -9 0 -56 20 -105 45 -50 25 -91 45 -92
45 -3 -1 -116 50 -251 114 -54 25 -100 46 -102 46 -1 0 -47 21 -101 47 -55 26
-101 48 -104 49 -3 0 -32 14 -65 29 -33 16 -62 29 -65 30 -3 1 -36 16 -75 34
-38 18 -104 49 -145 68 -41 19 -102 47 -135 63 -33 15 -87 40 -120 55 -33 15
-107 50 -164 76 -57 27 -104 49 -106 49 -1 0 -60 27 -129 60 -70 33 -129 60
-131 60 -2 0 -46 20 -97 44 -202 96 -310 146 -313 146 -1 0 -65 30 -141 66
-77 36 -143 67 -149 68 -5 1 -24 10 -42 19 -34 18 -39 19 -63 10z m125 -843
c28 -12 88 -40 133 -61 46 -22 88 -39 93 -39 5 0 9 -5 9 -12 0 -6 3 -9 6 -5 4
3 34 -8 68 -25 33 -18 63 -32 66 -33 3 0 21 -8 40 -17 51 -23 185 -86 255
-118 33 -15 89 -41 125 -58 36 -16 90 -41 120 -55 30 -14 96 -44 145 -67 50
-23 110 -51 135 -62 25 -12 88 -41 140 -66 52 -25 100 -46 105 -48 6 -1 57
-24 115 -52 58 -27 130 -61 160 -75 30 -14 104 -48 163 -76 60 -28 110 -51
112 -51 2 0 54 -24 116 -54 63 -29 137 -64 164 -76 28 -12 86 -39 130 -60 44
-21 103 -48 130 -60 248 -111 411 -193 395 -198 -8 -3 -66 -29 -129 -59 -62
-29 -114 -53 -116 -53 -1 0 -49 -22 -106 -49 -203 -95 -261 -121 -270 -121 -5
0 -9 -5 -9 -12 0 -6 -3 -8 -6 -5 -4 4 -23 -2 -43 -13 -77 -41 -279 -132 -285
-128 -2 2 -12 -5 -22 -14 -11 -9 -22 -17 -27 -17 -9 -1 -48 -18 -137 -58 -36
-17 -72 -33 -80 -37 -8 -3 -22 -10 -30 -15 -28 -18 -135 -64 -147 -64 -7 0
-13 -4 -13 -8 0 -4 -17 -14 -37 -22 -21 -8 -78 -34 -128 -57 -49 -23 -114 -53
-145 -67 -30 -14 -86 -40 -125 -58 -162 -76 -246 -115 -250 -115 -1 0 -54 -24
-116 -54 -63 -29 -141 -66 -174 -81 -118 -53 -191 -87 -236 -111 -26 -13 -54
-24 -63 -24 -9 0 -16 -4 -16 -10 0 -5 -5 -10 -12 -10 -6 0 -30 -9 -52 -19
-150 -71 -243 -113 -256 -113 -8 -1 -57 20 -107 45 -51 25 -93 44 -93 42 0 -2
-26 10 -57 26 -31 16 -63 29 -70 29 -7 0 -13 5 -13 10 0 6 -7 10 -14 10 -8 0
-35 11 -60 24 -26 14 -46 22 -46 20 0 -3 -13 4 -29 15 -16 12 -35 21 -43 21
-7 0 -23 7 -34 15 -12 8 -24 11 -28 8 -3 -3 -6 -1 -6 5 0 7 -5 12 -11 12 -7 0
-51 19 -98 41 -47 23 -92 42 -98 42 -7 0 -13 4 -13 9 0 4 -4 8 -9 8 -6 0 -47
17 -93 39 -46 21 -114 53 -153 71 -38 18 -95 44 -125 58 -30 14 -57 27 -60 27
-3 1 -41 19 -85 39 -44 21 -100 47 -125 58 -25 11 -80 37 -123 59 -42 21 -81
39 -85 40 -10 3 -93 40 -182 81 -41 19 -102 48 -135 63 -33 15 -100 47 -150
70 -104 49 -127 59 -137 57 -5 -1 -8 2 -8 8 0 5 -4 10 -10 10 -5 0 -66 27
-136 60 -69 33 -128 60 -130 60 -2 0 -47 21 -101 46 -54 25 -123 57 -153 71
-30 14 -73 33 -96 44 -22 10 -46 19 -52 19 -7 0 -12 4 -12 9 0 5 -12 12 -26
15 -38 10 -25 26 47 56 35 14 105 46 154 69 50 23 122 57 160 75 39 18 111 52
160 76 50 23 95 43 100 45 6 1 53 22 105 47 123 58 226 106 320 149 41 18 78
38 82 44 4 5 8 6 8 2 0 -5 17 1 38 12 41 21 155 75 367 171 28 13 82 37 120
56 175 81 234 109 285 131 30 14 89 41 130 60 342 160 386 180 450 208 36 16
67 32 70 35 3 3 10 6 15 7 6 1 60 25 120 54 256 121 277 129 304 114 15 -7 49
-23 76 -35z"/>
<path d="M25688 16335 c-2 -2 -37 -5 -78 -9 -292 -22 -594 -112 -875 -261 -93
-48 -268 -160 -295 -187 -9 -8 -20 -17 -27 -19 -43 -15 -393 -358 -393 -385 0
-4 -8 -14 -17 -23 -31 -28 -183 -252 -183 -270 0 -5 -4 -11 -8 -13 -8 -3 -108
-203 -137 -273 -19 -44 -74 -201 -80 -225 -2 -8 -11 -44 -20 -80 -9 -36 -18
-78 -21 -95 -23 -126 -31 -181 -27 -187 2 -5 0 -8 -4 -8 -11 0 -10 -465 1
-530 4 -25 11 -76 17 -115 6 -38 14 -83 19 -100 5 -16 11 -43 14 -60 12 -69
55 -203 103 -320 27 -65 114 -247 123 -255 3 -3 14 -21 24 -40 11 -19 31 -53
45 -74 14 -21 31 -46 36 -54 80 -123 246 -310 363 -409 31 -27 63 -55 72 -63
30 -29 169 -130 178 -130 5 0 15 -7 22 -15 7 -8 24 -21 39 -28 35 -18 75 -41
81 -47 3 -3 19 -12 35 -20 17 -8 46 -24 65 -36 19 -12 38 -22 43 -22 4 -1 32
-13 62 -27 31 -14 58 -25 61 -25 3 0 22 -7 42 -16 21 -9 46 -20 57 -24 26 -11
89 -30 95 -29 3 0 19 -5 35 -11 68 -27 273 -69 415 -85 66 -8 441 -14 453 -7
5 2 34 6 65 8 108 8 169 18 317 55 66 17 127 32 135 34 8 2 31 10 50 18 19 8
37 15 40 15 3 1 18 5 33 11 16 6 30 11 32 11 15 0 262 119 298 143 15 10 27
15 27 10 0 -4 4 -3 8 2 4 6 30 24 57 40 28 15 52 31 55 34 3 4 25 19 49 35 25
16 50 33 55 37 6 5 47 38 91 73 185 147 362 348 487 551 23 39 46 71 50 73 5
2 8 10 8 17 0 7 16 41 35 75 19 34 35 64 35 67 0 2 9 23 19 46 20 44 71 174
75 192 1 6 12 42 23 80 18 59 28 100 33 125 1 3 5 23 11 45 5 22 12 58 15 80
3 22 7 51 10 65 13 69 18 173 18 345 1 224 -5 291 -42 478 -9 43 -11 52 -13
60 0 1 -2 13 -5 27 -2 14 -11 42 -19 63 -8 20 -13 37 -10 37 2 0 -3 16 -11 35
-8 19 -14 37 -13 40 3 15 -81 214 -133 313 -55 107 -168 290 -199 322 -8 8
-33 40 -56 70 -57 75 -193 212 -295 297 -82 69 -239 183 -252 183 -4 0 -12 5
-19 11 -25 22 -192 110 -310 163 -64 29 -221 86 -237 86 -9 0 -20 4 -25 8 -11
9 -84 28 -185 48 -14 3 -36 7 -50 10 -14 3 -36 7 -50 9 -68 11 -109 16 -145
21 -44 5 -393 13 -397 9z m237 -969 c44 -3 89 -7 100 -9 11 -2 38 -8 60 -12
58 -10 181 -53 245 -84 104 -51 159 -82 171 -97 6 -8 15 -14 20 -14 12 0 28
-14 147 -127 56 -54 102 -104 102 -110 0 -7 4 -13 8 -13 10 0 72 -86 72 -99 0
-5 3 -11 8 -13 9 -4 55 -87 92 -165 40 -86 98 -270 105 -333 2 -19 7 -60 10
-90 10 -79 10 -235 1 -310 -5 -36 -10 -76 -11 -90 -2 -14 -4 -25 -5 -25 -1 0
-3 -8 -5 -19 -10 -54 -30 -124 -50 -179 -33 -92 -97 -227 -106 -227 -5 0 -9
-5 -9 -10 0 -14 -79 -134 -91 -138 -5 -2 -9 -8 -9 -13 0 -24 -143 -162 -248
-241 -126 -95 -367 -199 -492 -214 -14 -1 -50 -5 -80 -9 -96 -11 -140 -11
-141 0 0 5 -3 5 -5 -2 -3 -7 -11 -10 -17 -8 -7 2 -41 6 -77 9 -36 3 -85 9
-110 15 -25 5 -56 12 -70 14 -14 3 -52 15 -85 26 -33 12 -64 23 -70 24 -16 5
-150 71 -155 78 -3 3 -16 12 -30 19 -42 22 -132 92 -194 150 -62 59 -176 193
-176 207 0 5 -8 18 -17 29 -10 10 -25 33 -33 49 -8 17 -17 32 -20 35 -6 5 -49
95 -70 145 -25 60 -60 176 -75 245 -5 24 -19 111 -21 135 -4 42 -5 287 -1 305
2 8 7 38 11 65 32 208 115 410 244 595 45 64 244 270 262 270 5 0 15 6 22 13
16 17 152 98 198 119 62 29 140 58 140 52 0 -3 6 -2 13 3 6 4 17 9 22 10 6 1
30 8 55 14 25 6 61 13 80 15 19 1 35 3 35 4 0 1 29 4 65 7 36 3 66 6 68 8 2 1
11 1 20 -1 9 -1 53 -5 97 -8z"/>
<path d="M16533 16232 c-24 -3 -30 -21 -14 -37 5 -6 14 -28 21 -50 7 -22 16
-44 20 -50 3 -5 13 -30 20 -55 7 -25 17 -50 22 -57 5 -6 13 -24 18 -40 10 -32
52 -144 71 -188 7 -16 13 -32 14 -35 7 -28 69 -183 86 -214 8 -14 8 -16 -3
-10 -10 6 -11 5 -1 -8 11 -13 42 -89 148 -368 9 -25 21 -54 26 -65 4 -11 31
-81 60 -155 28 -74 77 -202 109 -285 32 -82 81 -211 110 -285 28 -74 55 -144
60 -155 4 -11 27 -69 50 -130 23 -60 46 -119 50 -130 4 -11 17 -45 29 -75 11
-30 26 -68 32 -85 7 -16 13 -32 14 -35 1 -3 5 -14 10 -25 15 -38 116 -300 151
-395 19 -52 41 -108 49 -125 17 -37 95 -241 95 -248 0 -2 8 -22 17 -43 9 -22
17 -41 18 -44 1 -3 5 -14 10 -25 23 -57 77 -201 79 -210 1 -5 7 -19 13 -30 14
-27 38 -98 35 -107 -1 -5 2 -8 7 -8 5 0 11 -10 14 -22 4 -21 19 -60 75 -203
11 -27 38 -99 61 -160 22 -60 45 -119 50 -130 16 -33 25 -69 22 -85 -3 -14
-85 -259 -98 -290 -4 -8 -7 -17 -8 -20 -21 -84 -105 -282 -132 -312 -9 -10
-13 -18 -9 -18 4 0 1 -6 -6 -14 -7 -8 -22 -27 -33 -42 -46 -65 -131 -135 -219
-180 -50 -25 -91 -45 -91 -44 0 1 -31 -7 -70 -18 -151 -45 -382 -47 -523 -3
-18 5 -36 10 -40 10 -11 1 -74 21 -97 31 -87 36 -120 48 -122 46 -3 -3 22 -82
57 -176 17 -47 37 -103 44 -125 8 -22 18 -51 24 -65 6 -14 25 -65 42 -115 17
-49 34 -97 37 -105 4 -8 7 -18 8 -22 2 -5 4 -10 5 -13 1 -3 3 -8 5 -12 2 -10
12 -36 36 -97 10 -27 19 -56 19 -65 0 -10 4 -21 9 -26 8 -10 46 -118 42 -123
-1 -1 6 -16 14 -32 9 -18 26 -32 43 -35 15 -4 38 -9 52 -12 122 -29 371 -33
515 -8 85 14 162 33 181 43 12 6 24 9 26 7 3 -3 25 3 49 14 48 20 70 28 82 29
13 2 71 36 79 47 4 6 8 6 8 2 0 -4 25 8 55 28 31 19 60 35 66 35 5 0 12 7 15
15 4 8 10 15 16 15 5 0 15 6 23 13 7 6 32 28 56 47 94 78 175 171 265 305 44
64 119 195 119 207 0 4 6 13 13 19 6 7 12 17 12 22 0 5 14 38 30 74 17 35 30
67 30 70 0 3 7 19 15 36 13 29 29 71 84 222 11 28 25 64 32 80 7 17 13 32 14
35 6 26 39 117 45 125 4 6 13 28 20 50 7 22 17 46 23 53 5 6 7 12 3 12 -3 0 5
25 19 55 13 31 24 56 24 58 0 2 18 54 28 77 3 8 7 20 9 25 1 6 36 100 79 210
42 110 77 205 79 210 5 16 17 48 27 70 5 11 19 49 32 85 72 195 122 326 127
330 3 3 6 12 8 20 3 14 38 111 63 175 7 17 13 35 15 40 1 6 14 38 27 72 14 34
22 64 19 67 -3 3 0 6 6 6 7 0 12 6 12 13 0 6 36 107 81 222 44 116 82 215 83
220 3 10 8 24 23 63 3 9 7 19 8 22 1 3 5 12 8 20 4 8 26 69 51 135 24 66 50
134 57 150 7 17 13 33 14 38 2 4 4 9 5 12 1 3 3 8 5 13 1 4 5 16 10 27 19 48
77 201 79 210 2 6 8 24 15 40 6 17 16 44 22 60 6 17 15 39 20 50 5 11 33 85
63 165 67 179 269 717 326 865 23 60 45 114 48 120 4 5 8 19 9 29 2 10 12 39
23 64 11 24 20 51 20 58 0 8 4 14 10 14 5 0 9 3 8 8 -3 10 33 115 43 126 5 6
9 16 9 24 0 8 6 28 14 45 8 18 31 77 51 132 20 55 42 114 49 130 29 64 29 75
4 76 -13 0 -272 0 -576 1 -456 0 -556 -2 -566 -13 -7 -8 -23 -48 -36 -89 -13
-41 -26 -79 -29 -85 -3 -5 -7 -17 -8 -26 -1 -9 -7 -27 -12 -40 -5 -13 -9 -27
-10 -32 0 -4 -8 -21 -16 -37 -9 -17 -13 -30 -10 -30 3 0 -1 -16 -9 -35 -8 -19
-12 -35 -9 -35 3 0 0 -6 -6 -14 -7 -8 -13 -22 -16 -32 -3 -17 -109 -340 -122
-374 -4 -8 -7 -17 -8 -20 -1 -3 -4 -12 -8 -20 -5 -14 -80 -240 -82 -250 -1 -3
-4 -12 -8 -20 -3 -8 -40 -118 -82 -245 -41 -126 -78 -237 -81 -245 -3 -8 -6
-17 -6 -20 0 -3 -9 -27 -20 -55 -11 -27 -21 -57 -23 -65 -2 -8 -37 -116 -78
-240 -42 -124 -77 -232 -79 -240 -2 -8 -5 -17 -8 -20 -4 -4 -89 -256 -96 -285
-2 -5 -12 -34 -23 -63 -11 -29 -20 -56 -21 -60 -2 -4 -6 -18 -11 -31 -9 -22
-16 -52 -19 -76 -2 -20 -22 28 -71 168 -28 78 -54 153 -59 167 -4 14 -27 77
-50 140 -23 63 -46 126 -50 140 -5 14 -23 63 -40 110 -18 47 -32 91 -33 98 0
6 -4 12 -9 12 -5 0 -7 4 -3 10 3 5 1 17 -4 27 -10 19 -52 131 -55 148 -1 6 -5
16 -9 22 -5 7 -10 21 -12 30 -6 29 -74 216 -85 235 -6 10 -10 23 -10 29 0 10
-47 146 -71 204 -4 11 -18 49 -30 85 -12 36 -27 79 -34 95 -11 25 -25 65 -30
85 -1 3 -4 12 -8 20 -3 8 -47 132 -97 275 -51 143 -96 269 -101 280 -5 11 -16
43 -25 70 -9 28 -21 61 -27 75 -5 14 -11 30 -13 35 -10 39 -77 222 -84 228 -7
8 -1106 16 -1157 9z"/>
<path d="M0 14310 l0 -400 88 -41 c48 -23 92 -43 97 -45 6 -1 45 -18 88 -38
42 -20 112 -52 155 -72 42 -20 115 -53 162 -74 90 -40 246 -112 294 -136 16
-8 35 -14 43 -14 7 0 13 -4 13 -10 0 -5 3 -9 7 -8 5 1 30 -8 56 -20 27 -12 53
-22 58 -22 5 0 9 -4 9 -10 0 -5 6 -10 13 -10 7 0 31 -8 53 -19 21 -10 62 -29
89 -41 78 -35 207 -94 357 -164 42 -20 78 -36 81 -36 5 0 203 -91 260 -121 22
-10 44 -19 51 -19 7 0 17 -5 24 -12 6 -6 17 -13 24 -14 7 -1 49 -19 93 -40 44
-21 82 -38 85 -39 5 -1 39 -17 209 -96 57 -27 105 -49 107 -49 1 0 42 -18 91
-41 48 -23 131 -60 183 -84 52 -24 127 -57 165 -75 39 -18 95 -44 125 -57 30
-14 78 -36 106 -49 28 -13 56 -24 62 -24 7 0 12 -4 12 -9 0 -5 11 -12 26 -15
14 -4 77 -31 140 -61 63 -30 121 -55 128 -55 8 0 19 -7 26 -15 7 -8 17 -15 22
-15 6 0 44 -16 85 -35 41 -19 76 -35 79 -35 2 0 45 -20 96 -44 51 -24 116 -53
143 -66 28 -12 87 -40 132 -61 45 -21 84 -39 86 -39 3 0 49 -21 103 -47 55
-25 101 -47 104 -48 19 -6 207 -92 265 -122 46 -23 75 -25 109 -9 94 44 184
84 203 90 13 4 23 12 23 17 0 5 7 9 15 9 8 0 38 11 67 25 28 14 58 25 65 25 7
0 13 5 13 10 0 6 4 10 10 10 5 0 45 16 87 36 91 42 116 52 124 50 4 0 15 7 25
16 11 9 21 17 24 17 9 0 55 19 140 59 165 77 242 112 245 112 2 0 48 21 102
46 54 25 114 53 133 61 42 19 125 57 243 112 49 23 91 41 93 41 2 0 40 18 84
40 44 21 83 39 85 39 5 1 47 19 190 86 39 17 86 39 105 48 54 24 157 71 245
112 44 20 118 54 165 75 47 21 126 57 175 80 50 23 104 48 120 55 17 8 70 32
118 54 49 23 90 41 92 41 2 0 47 21 102 46 192 90 246 114 259 114 8 0 14 3
14 8 0 4 21 16 48 26 26 11 88 39 137 62 50 23 115 53 145 67 30 13 84 38 120
55 36 16 88 40 115 52 28 12 77 36 109 51 33 16 63 29 66 29 4 0 61 26 126 57
65 31 121 58 124 58 3 1 21 8 40 17 117 53 152 69 215 99 39 18 72 33 75 34 3
0 15 6 27 13 21 12 21 13 21 407 0 245 -4 395 -10 395 -9 0 -205 -87 -396
-176 -52 -24 -96 -44 -98 -44 -2 0 -47 -21 -101 -46 -54 -25 -114 -53 -133
-61 -19 -9 -62 -28 -95 -44 -171 -79 -237 -109 -240 -109 -4 0 -100 -44 -235
-107 -68 -32 -116 -53 -130 -58 -5 -2 -89 -40 -185 -86 -27 -12 -52 -23 -55
-24 -3 0 -32 -14 -65 -29 -130 -61 -163 -76 -250 -116 -49 -23 -94 -43 -100
-44 -5 -2 -41 -18 -80 -36 -202 -94 -237 -110 -240 -110 -3 0 -125 -56 -230
-105 -27 -13 -72 -33 -100 -45 -27 -13 -97 -45 -154 -71 -57 -27 -108 -49
-114 -49 -6 0 -18 -6 -26 -14 -9 -8 -25 -16 -36 -18 -11 -1 -23 -7 -26 -11 -3
-5 -12 -10 -20 -11 -8 -1 -43 -16 -79 -33 -191 -90 -378 -173 -387 -173 -6 0
-16 -6 -22 -14 -6 -7 -26 -16 -43 -20 -17 -3 -40 -14 -51 -24 -10 -9 -21 -16
-23 -15 -4 3 -52 -18 -154 -64 -137 -64 -159 -73 -169 -73 -6 0 -11 -4 -11
-10 0 -5 -9 -10 -19 -10 -11 0 -23 -4 -26 -10 -3 -5 -24 -14 -45 -20 -22 -6
-40 -15 -40 -19 0 -5 -11 -12 -24 -15 -13 -3 -57 -21 -97 -40 -225 -105 -359
-164 -359 -158 0 4 -4 2 -8 -3 -10 -15 -94 -51 -109 -47 -7 2 -48 19 -91 39
-42 20 -77 35 -77 32 -1 -2 -12 3 -25 12 -14 9 -83 42 -155 74 -71 32 -163 73
-203 92 -39 18 -76 33 -81 33 -5 0 -14 7 -21 15 -7 9 -15 13 -18 10 -3 -2 -21
4 -41 15 -20 10 -103 49 -186 86 -82 36 -154 70 -160 75 -5 5 -17 9 -27 9 -10
0 -18 4 -18 10 0 5 -3 9 -7 8 -10 -2 -45 13 -121 49 -31 15 -59 28 -62 28 -3
0 -30 12 -60 26 -30 15 -82 39 -115 54 -33 15 -82 38 -109 51 -28 13 -56 24
-63 24 -7 0 -13 5 -13 10 0 6 -5 10 -12 10 -6 0 -30 9 -52 19 -23 11 -93 43
-156 71 -63 29 -133 61 -154 71 -22 11 -46 19 -53 19 -7 0 -13 5 -13 10 0 6
-7 10 -15 10 -8 0 -23 4 -33 10 -15 9 -171 81 -247 115 -49 21 -145 65 -215
97 -36 16 -87 40 -115 53 -27 12 -70 32 -95 43 -25 11 -79 36 -120 55 -41 19
-100 45 -130 59 -30 14 -76 35 -102 47 -89 39 -143 64 -213 97 -161 75 -211
97 -220 99 -5 2 -48 21 -95 43 -47 22 -130 60 -185 85 -55 25 -144 66 -198 91
-55 25 -101 46 -103 46 -3 0 -82 36 -229 105 -27 13 -90 42 -140 65 -49 23
-94 43 -100 44 -5 1 -30 12 -54 24 -25 12 -46 22 -48 22 -2 0 -3 -180 -3 -400z"/>
<path d="M0 12686 l0 -403 28 -13 c15 -7 33 -15 41 -16 8 -1 17 -7 20 -11 3
-5 34 -20 69 -33 34 -14 62 -27 62 -31 0 -3 6 -6 13 -6 6 0 53 -19 102 -43 50
-23 133 -62 185 -85 52 -24 127 -58 165 -76 39 -18 72 -33 75 -34 3 0 30 -12
60 -27 30 -14 82 -38 115 -53 33 -15 78 -35 101 -46 22 -10 46 -19 52 -19 7 0
12 -4 12 -10 0 -5 4 -10 10 -10 5 0 34 -11 65 -25 30 -13 58 -24 60 -24 3 0
25 -12 50 -26 25 -13 47 -25 50 -25 3 0 29 -11 57 -24 29 -13 63 -27 76 -31
12 -3 22 -10 22 -14 0 -4 6 -8 13 -8 6 0 53 -20 102 -44 50 -23 92 -43 95 -44
16 -5 67 -28 129 -59 39 -19 74 -35 76 -35 3 0 44 -18 90 -41 47 -22 87 -40
89 -40 2 0 48 -20 101 -45 103 -48 167 -77 175 -80 3 0 31 -13 63 -28 58 -27
120 -56 237 -109 154 -71 178 -82 237 -109 34 -16 67 -29 72 -29 6 0 11 -5 11
-12 0 -6 2 -9 6 -6 3 3 32 -7 65 -23 32 -16 61 -29 64 -29 2 0 37 -16 76 -35
40 -19 78 -35 84 -35 7 0 18 -7 25 -15 6 -8 15 -14 18 -13 4 1 30 -8 57 -21
28 -13 74 -34 103 -47 71 -33 151 -69 249 -114 45 -21 84 -35 87 -32 3 3 6 0
6 -6 0 -7 5 -12 10 -12 6 0 42 -16 80 -35 39 -19 74 -35 78 -35 4 0 50 -21
102 -46 52 -25 100 -47 105 -48 9 -3 69 -30 190 -87 28 -12 52 -24 55 -24 3
-1 37 -16 75 -34 86 -41 158 -74 165 -76 3 0 22 -9 43 -19 l38 -19 72 33 c109
50 185 85 262 121 39 18 72 33 75 34 3 0 15 6 28 13 12 7 22 9 22 5 0 -4 4 -3
8 2 4 6 86 46 182 90 96 43 221 100 278 127 57 26 110 48 118 48 7 0 14 5 14
10 0 6 4 10 9 10 10 0 461 203 512 230 20 11 43 20 50 20 7 0 20 6 28 14 9 7
39 21 66 31 28 10 57 24 66 32 8 7 21 13 28 13 6 0 26 8 44 17 18 9 34 18 37
18 3 1 30 13 60 27 72 35 113 52 123 50 4 -1 7 2 7 8 0 5 5 10 11 10 9 0 56
21 194 85 172 80 248 115 254 115 4 0 38 16 75 35 38 19 75 35 82 35 8 0 14 5
14 10 0 6 7 10 15 10 8 0 23 4 33 10 9 5 58 28 107 51 50 22 109 49 132 60 23
10 47 19 52 19 6 0 11 5 11 10 0 6 3 9 8 8 7 -2 17 2 170 73 46 22 85 39 87
39 2 0 56 25 120 55 65 30 118 55 120 55 1 0 38 17 81 37 43 20 81 38 84 38 3
1 50 22 104 48 54 26 100 47 102 47 2 0 41 17 86 39 46 21 173 79 283 129 110
50 234 106 275 125 41 19 101 46 132 60 l56 26 0 400 c0 221 -4 401 -8 401 -3
0 -10 -3 -14 -7 -4 -5 -11 -8 -14 -9 -4 0 -36 -14 -72 -31 -112 -52 -155 -71
-165 -74 -5 -2 -40 -18 -78 -36 -37 -18 -72 -33 -77 -33 -6 0 -10 -5 -10 -12
0 -6 -3 -9 -6 -5 -4 3 -33 -7 -65 -24 -32 -16 -60 -29 -61 -28 -2 0 -37 -15
-78 -34 -41 -19 -97 -45 -125 -57 -27 -12 -78 -36 -112 -51 -35 -16 -91 -42
-125 -58 -35 -15 -85 -38 -113 -51 -27 -12 -78 -35 -113 -51 -35 -16 -68 -29
-73 -29 -5 0 -9 -5 -9 -12 0 -6 -3 -8 -6 -5 -4 4 -19 0 -33 -8 -35 -19 -218
-103 -241 -110 -3 -1 -41 -18 -85 -39 -44 -21 -125 -58 -180 -83 -55 -24 -122
-55 -150 -68 -95 -44 -125 -56 -131 -55 -4 1 -10 -2 -13 -7 -3 -4 -51 -28
-106 -52 -55 -25 -151 -69 -214 -98 -62 -29 -115 -53 -117 -53 -3 0 -40 -16
-82 -36 -206 -96 -402 -186 -412 -189 -3 -1 -36 -16 -74 -33 -38 -18 -73 -32
-77 -32 -5 0 -9 -4 -9 -10 0 -5 -3 -9 -7 -8 -13 3 -83 -25 -83 -34 0 -4 -6 -8
-14 -8 -7 0 -87 -34 -177 -76 -161 -74 -229 -105 -239 -109 -3 -1 -22 -9 -42
-18 -21 -10 -42 -17 -48 -17 -5 0 -10 -4 -10 -10 0 -5 -3 -9 -7 -8 -5 0 -30
-10 -58 -23 -27 -13 -52 -24 -55 -24 -3 -1 -32 -15 -65 -30 -33 -16 -62 -29
-65 -29 -3 -1 -25 -11 -50 -23 -25 -11 -70 -32 -100 -46 -31 -14 -91 -42 -135
-62 -77 -35 -124 -56 -135 -60 -5 -2 -104 -48 -182 -84 -54 -26 -60 -25 -176
30 -45 21 -84 39 -86 39 -2 0 -48 21 -103 46 -54 26 -102 47 -108 49 -5 1 -50
21 -100 44 -49 23 -106 49 -125 58 -66 29 -221 101 -353 162 -49 23 -90 41
-92 41 -2 0 -45 20 -97 44 -51 24 -115 53 -143 66 -27 12 -72 32 -100 45 -47
21 -76 35 -252 116 -38 17 -106 48 -153 69 -47 21 -121 54 -165 75 -44 20 -96
44 -115 52 -19 9 -62 28 -95 43 -65 30 -170 78 -225 103 -19 8 -70 32 -113 51
-42 20 -82 36 -87 36 -6 0 -10 5 -10 10 0 6 -8 10 -18 10 -10 0 -26 6 -37 14
-11 7 -24 15 -30 16 -5 1 -34 13 -62 26 -29 13 -79 36 -110 50 -58 26 -83 37
-247 113 -48 23 -89 41 -91 41 -2 0 -38 17 -82 37 -43 21 -80 38 -83 38 -3 1
-36 16 -75 34 -38 18 -83 39 -100 46 -16 7 -74 34 -128 59 -54 25 -101 46
-103 46 -2 0 -41 17 -87 39 -45 21 -98 45 -117 54 -19 8 -71 32 -115 52 -175
81 -205 95 -208 93 -1 -1 -20 8 -42 20 -68 36 -216 102 -231 102 -8 0 -14 5
-14 10 0 6 -9 10 -20 10 -11 0 -20 5 -20 10 0 6 -8 10 -17 10 -10 0 -33 9 -50
20 l-33 20 0 -404z"/>
</g>
</svg>
